<mxfile host="app.diagrams.net" modified="2023-10-29T00:48:01.681Z" agent="Mozilla/5.0 (Macintosh; Intel Mac OS X 10_15_7) AppleWebKit/537.36 (KHTML, like Gecko) Chrome/118.0.0.0 Safari/537.36" etag="bAjXSUjQz2SOWZbwPwHT" version="22.0.8" type="device">
  <diagram id="C5RBs43oDa-KdzZeNtuy" name="Page-1">
    <mxGraphModel dx="1908" dy="1234" grid="1" gridSize="10" guides="1" tooltips="1" connect="1" arrows="1" fold="1" page="1" pageScale="1" pageWidth="827" pageHeight="1169" math="1" shadow="0">
      <root>
        <mxCell id="WIyWlLk6GJQsqaUBKTNV-0" />
        <mxCell id="WIyWlLk6GJQsqaUBKTNV-1" parent="WIyWlLk6GJQsqaUBKTNV-0" />
        <mxCell id="O0BA-uQ4y1vlw3gM-e3o-24" style="edgeStyle=orthogonalEdgeStyle;rounded=0;orthogonalLoop=1;jettySize=auto;html=1;exitX=1;exitY=0.5;exitDx=0;exitDy=0;entryX=0;entryY=1;entryDx=0;entryDy=0;" edge="1" parent="WIyWlLk6GJQsqaUBKTNV-1" source="O0BA-uQ4y1vlw3gM-e3o-0" target="O0BA-uQ4y1vlw3gM-e3o-11">
          <mxGeometry relative="1" as="geometry" />
        </mxCell>
        <mxCell id="O0BA-uQ4y1vlw3gM-e3o-0" value="&lt;font style=&quot;font-size: 19px;&quot;&gt;Tropical SST &lt;br style=&quot;font-size: 19px;&quot;&gt;Mean Slope &lt;br style=&quot;font-size: 19px;&quot;&gt;$$\mu_T \sim \mathcal{N(0,0.1)} $$&lt;/font&gt;" style="ellipse;whiteSpace=wrap;html=1;fillColor=#647687;fontColor=#000000;strokeColor=#314354;shadow=0;fontSize=19;labelPosition=center;verticalLabelPosition=middle;align=center;verticalAlign=middle;" vertex="1" parent="WIyWlLk6GJQsqaUBKTNV-1">
          <mxGeometry x="124" y="525" width="280" height="120" as="geometry" />
        </mxCell>
        <mxCell id="O0BA-uQ4y1vlw3gM-e3o-19" style="edgeStyle=orthogonalEdgeStyle;rounded=0;orthogonalLoop=1;jettySize=auto;html=1;exitX=1;exitY=0.5;exitDx=0;exitDy=0;entryX=0;entryY=0.5;entryDx=0;entryDy=0;" edge="1" parent="WIyWlLk6GJQsqaUBKTNV-1" source="O0BA-uQ4y1vlw3gM-e3o-3" target="O0BA-uQ4y1vlw3gM-e3o-9">
          <mxGeometry relative="1" as="geometry" />
        </mxCell>
        <mxCell id="O0BA-uQ4y1vlw3gM-e3o-3" value="&lt;font style=&quot;font-size: 19px;&quot;&gt;Mean Intercept&lt;br style=&quot;font-size: 19px;&quot;&gt;$$\mu_\alpha \sim \mathcal{N}(\Phi^{-1}(\tau), 0.1)$$&lt;br style=&quot;font-size: 19px;&quot;&gt;&lt;/font&gt;" style="ellipse;whiteSpace=wrap;html=1;fillColor=#647687;fontColor=#000000;strokeColor=#314354;shadow=0;fontSize=19;labelPosition=center;verticalLabelPosition=middle;align=center;verticalAlign=middle;" vertex="1" parent="WIyWlLk6GJQsqaUBKTNV-1">
          <mxGeometry x="124" y="30" width="290" height="130" as="geometry" />
        </mxCell>
        <mxCell id="O0BA-uQ4y1vlw3gM-e3o-22" style="edgeStyle=orthogonalEdgeStyle;rounded=0;orthogonalLoop=1;jettySize=auto;html=1;exitX=1;exitY=0.5;exitDx=0;exitDy=0;entryX=0;entryY=1;entryDx=0;entryDy=0;" edge="1" parent="WIyWlLk6GJQsqaUBKTNV-1" source="O0BA-uQ4y1vlw3gM-e3o-4" target="O0BA-uQ4y1vlw3gM-e3o-10">
          <mxGeometry relative="1" as="geometry" />
        </mxCell>
        <mxCell id="O0BA-uQ4y1vlw3gM-e3o-4" value="&lt;font style=&quot;font-size: 19px;&quot;&gt;Local SST &lt;br style=&quot;font-size: 19px;&quot;&gt;Mean Slope &lt;br style=&quot;font-size: 19px;&quot;&gt;$$\mu_L \sim \mathcal{N(0,0.1)} $$&lt;/font&gt;" style="ellipse;whiteSpace=wrap;html=1;fillColor=#647687;fontColor=#000000;strokeColor=#314354;shadow=0;fontSize=19;labelPosition=center;verticalLabelPosition=middle;align=center;verticalAlign=middle;" vertex="1" parent="WIyWlLk6GJQsqaUBKTNV-1">
          <mxGeometry x="250" y="360" width="280" height="120" as="geometry" />
        </mxCell>
        <mxCell id="O0BA-uQ4y1vlw3gM-e3o-20" style="edgeStyle=orthogonalEdgeStyle;rounded=0;orthogonalLoop=1;jettySize=auto;html=1;exitX=1;exitY=0;exitDx=0;exitDy=0;entryX=0;entryY=1;entryDx=0;entryDy=0;" edge="1" parent="WIyWlLk6GJQsqaUBKTNV-1" source="O0BA-uQ4y1vlw3gM-e3o-6" target="O0BA-uQ4y1vlw3gM-e3o-9">
          <mxGeometry relative="1" as="geometry" />
        </mxCell>
        <mxCell id="O0BA-uQ4y1vlw3gM-e3o-21" style="edgeStyle=orthogonalEdgeStyle;rounded=0;orthogonalLoop=1;jettySize=auto;html=1;exitX=1;exitY=0.5;exitDx=0;exitDy=0;entryX=0;entryY=0.5;entryDx=0;entryDy=0;" edge="1" parent="WIyWlLk6GJQsqaUBKTNV-1" source="O0BA-uQ4y1vlw3gM-e3o-6" target="O0BA-uQ4y1vlw3gM-e3o-10">
          <mxGeometry relative="1" as="geometry" />
        </mxCell>
        <mxCell id="O0BA-uQ4y1vlw3gM-e3o-23" style="edgeStyle=orthogonalEdgeStyle;rounded=0;orthogonalLoop=1;jettySize=auto;html=1;exitX=1;exitY=1;exitDx=0;exitDy=0;entryX=0;entryY=0.5;entryDx=0;entryDy=0;" edge="1" parent="WIyWlLk6GJQsqaUBKTNV-1" source="O0BA-uQ4y1vlw3gM-e3o-6" target="O0BA-uQ4y1vlw3gM-e3o-11">
          <mxGeometry relative="1" as="geometry">
            <Array as="points">
              <mxPoint x="600" y="299" />
              <mxPoint x="600" y="475" />
            </Array>
          </mxGeometry>
        </mxCell>
        <mxCell id="O0BA-uQ4y1vlw3gM-e3o-6" value="&lt;font style=&quot;font-size: 19px;&quot;&gt;Global Parameter S.D&lt;br style=&quot;font-size: 19px;&quot;&gt;$$\sigma_T, \sigma_L, \sigma_{\alpha} \sim \text{Half-Cauchy}(0,3) $$&lt;/font&gt;" style="ellipse;whiteSpace=wrap;html=1;fillColor=#647687;fontColor=#000000;strokeColor=#314354;shadow=0;fontSize=19;labelPosition=center;verticalLabelPosition=middle;align=center;verticalAlign=middle;" vertex="1" parent="WIyWlLk6GJQsqaUBKTNV-1">
          <mxGeometry x="240" y="180" width="330" height="140" as="geometry" />
        </mxCell>
        <mxCell id="O0BA-uQ4y1vlw3gM-e3o-7" value="" style="rounded=1;whiteSpace=wrap;html=1;fillColor=none;dashed=1;dashPattern=8 8;" vertex="1" parent="WIyWlLk6GJQsqaUBKTNV-1">
          <mxGeometry x="680" y="30" width="410" height="630" as="geometry" />
        </mxCell>
        <mxCell id="O0BA-uQ4y1vlw3gM-e3o-25" style="edgeStyle=orthogonalEdgeStyle;rounded=0;orthogonalLoop=1;jettySize=auto;html=1;exitX=1;exitY=0.5;exitDx=0;exitDy=0;entryX=0;entryY=0.5;entryDx=0;entryDy=0;" edge="1" parent="WIyWlLk6GJQsqaUBKTNV-1" source="O0BA-uQ4y1vlw3gM-e3o-9" target="O0BA-uQ4y1vlw3gM-e3o-12">
          <mxGeometry relative="1" as="geometry">
            <Array as="points">
              <mxPoint x="1130" y="125" />
              <mxPoint x="1130" y="315" />
            </Array>
          </mxGeometry>
        </mxCell>
        <mxCell id="O0BA-uQ4y1vlw3gM-e3o-9" value="&lt;font style=&quot;font-size: 19px;&quot;&gt;Intercept&lt;br style=&quot;font-size: 19px;&quot;&gt;$$\alpha^{(j)} \sim \mathcal{N}(\mu_\alpha, {\sigma_\alpha}^2)$$&lt;br style=&quot;font-size: 19px;&quot;&gt;&lt;/font&gt;" style="ellipse;whiteSpace=wrap;html=1;fillColor=#6d8764;fontColor=#000000;strokeColor=#3A5431;shadow=0;fontSize=19;labelPosition=center;verticalLabelPosition=middle;align=center;verticalAlign=middle;" vertex="1" parent="WIyWlLk6GJQsqaUBKTNV-1">
          <mxGeometry x="760" y="60" width="290" height="130" as="geometry" />
        </mxCell>
        <mxCell id="O0BA-uQ4y1vlw3gM-e3o-26" style="edgeStyle=orthogonalEdgeStyle;rounded=0;orthogonalLoop=1;jettySize=auto;html=1;exitX=1;exitY=0.5;exitDx=0;exitDy=0;entryX=0;entryY=0.5;entryDx=0;entryDy=0;" edge="1" parent="WIyWlLk6GJQsqaUBKTNV-1" source="O0BA-uQ4y1vlw3gM-e3o-10" target="O0BA-uQ4y1vlw3gM-e3o-12">
          <mxGeometry relative="1" as="geometry">
            <Array as="points">
              <mxPoint x="1130" y="295" />
              <mxPoint x="1130" y="315" />
            </Array>
          </mxGeometry>
        </mxCell>
        <mxCell id="O0BA-uQ4y1vlw3gM-e3o-10" value="&lt;font style=&quot;font-size: 19px;&quot;&gt;Local SST Slope&lt;br style=&quot;font-size: 19px;&quot;&gt;$$\beta^{(j)}_{L} \sim \mathcal{N}(\mu_L, {\sigma_L}^2)$$&lt;br style=&quot;font-size: 19px;&quot;&gt;&lt;/font&gt;" style="ellipse;whiteSpace=wrap;html=1;fillColor=#6d8764;fontColor=#000000;strokeColor=#3A5431;shadow=0;fontSize=19;labelPosition=center;verticalLabelPosition=middle;align=center;verticalAlign=middle;" vertex="1" parent="WIyWlLk6GJQsqaUBKTNV-1">
          <mxGeometry x="755" y="230" width="290" height="130" as="geometry" />
        </mxCell>
        <mxCell id="O0BA-uQ4y1vlw3gM-e3o-27" style="edgeStyle=orthogonalEdgeStyle;rounded=0;orthogonalLoop=1;jettySize=auto;html=1;exitX=1;exitY=0.5;exitDx=0;exitDy=0;entryX=0;entryY=0.5;entryDx=0;entryDy=0;" edge="1" parent="WIyWlLk6GJQsqaUBKTNV-1" source="O0BA-uQ4y1vlw3gM-e3o-11" target="O0BA-uQ4y1vlw3gM-e3o-12">
          <mxGeometry relative="1" as="geometry">
            <Array as="points">
              <mxPoint x="1130" y="475" />
              <mxPoint x="1130" y="315" />
            </Array>
          </mxGeometry>
        </mxCell>
        <mxCell id="O0BA-uQ4y1vlw3gM-e3o-11" value="&lt;font style=&quot;font-size: 19px;&quot;&gt;Tropical&amp;nbsp;SST Slope&lt;br style=&quot;font-size: 19px;&quot;&gt;$$\beta^{(j)}_{T} \sim \mathcal{N}(\mu_T, {\sigma_T}^2)$$&lt;br style=&quot;font-size: 19px;&quot;&gt;&lt;/font&gt;" style="ellipse;whiteSpace=wrap;html=1;fillColor=#6d8764;fontColor=#000000;strokeColor=#3A5431;shadow=0;fontSize=19;labelPosition=center;verticalLabelPosition=middle;align=center;verticalAlign=middle;" vertex="1" parent="WIyWlLk6GJQsqaUBKTNV-1">
          <mxGeometry x="755" y="410" width="290" height="130" as="geometry" />
        </mxCell>
        <mxCell id="O0BA-uQ4y1vlw3gM-e3o-31" style="edgeStyle=orthogonalEdgeStyle;rounded=0;orthogonalLoop=1;jettySize=auto;html=1;exitX=0.5;exitY=1;exitDx=0;exitDy=0;" edge="1" parent="WIyWlLk6GJQsqaUBKTNV-1" source="O0BA-uQ4y1vlw3gM-e3o-12" target="O0BA-uQ4y1vlw3gM-e3o-17">
          <mxGeometry relative="1" as="geometry" />
        </mxCell>
        <mxCell id="O0BA-uQ4y1vlw3gM-e3o-12" value="&lt;font style=&quot;font-size: 19px;&quot;&gt;Quantile Estimate&lt;br style=&quot;font-size: 19px;&quot;&gt;$$ \hat{q_{\tau}} = &lt;br style=&quot;font-size: 19px;&quot;&gt;\alpha^{(j)} + \beta^{(j)}_Tx_T + \beta^{(j)}_Lx_L $$&lt;/font&gt;" style="ellipse;whiteSpace=wrap;html=1;fillColor=#76608a;fontColor=#000000;strokeColor=#432D57;shadow=0;fontSize=19;labelPosition=center;verticalLabelPosition=middle;align=center;verticalAlign=middle;" vertex="1" parent="WIyWlLk6GJQsqaUBKTNV-1">
          <mxGeometry x="1200" y="235" width="310" height="160" as="geometry" />
        </mxCell>
        <mxCell id="O0BA-uQ4y1vlw3gM-e3o-28" style="edgeStyle=orthogonalEdgeStyle;rounded=0;orthogonalLoop=1;jettySize=auto;html=1;exitX=0.5;exitY=1;exitDx=0;exitDy=0;" edge="1" parent="WIyWlLk6GJQsqaUBKTNV-1" source="O0BA-uQ4y1vlw3gM-e3o-13" target="O0BA-uQ4y1vlw3gM-e3o-12">
          <mxGeometry relative="1" as="geometry" />
        </mxCell>
        <mxCell id="O0BA-uQ4y1vlw3gM-e3o-13" value="&lt;font style=&quot;font-size: 19px;&quot;&gt;Basin $$j \in \{0, 1,2\}$$&lt;/font&gt;" style="shape=parallelogram;perimeter=parallelogramPerimeter;whiteSpace=wrap;html=1;fixedSize=1;fillColor=#a0522d;strokeColor=#6D1F00;fontColor=#000000;shadow=0;fontSize=19;labelPosition=center;verticalLabelPosition=middle;align=center;verticalAlign=middle;" vertex="1" parent="WIyWlLk6GJQsqaUBKTNV-1">
          <mxGeometry x="1150" y="50" width="160" height="90" as="geometry" />
        </mxCell>
        <mxCell id="O0BA-uQ4y1vlw3gM-e3o-29" style="edgeStyle=orthogonalEdgeStyle;rounded=0;orthogonalLoop=1;jettySize=auto;html=1;exitX=0.5;exitY=1;exitDx=0;exitDy=0;entryX=0.5;entryY=0;entryDx=0;entryDy=0;" edge="1" parent="WIyWlLk6GJQsqaUBKTNV-1" source="O0BA-uQ4y1vlw3gM-e3o-14" target="O0BA-uQ4y1vlw3gM-e3o-12">
          <mxGeometry relative="1" as="geometry" />
        </mxCell>
        <mxCell id="O0BA-uQ4y1vlw3gM-e3o-14" value="&lt;font style=&quot;font-size: 19px;&quot;&gt;Local SST $$x_L$$&lt;/font&gt;" style="shape=parallelogram;perimeter=parallelogramPerimeter;whiteSpace=wrap;html=1;fixedSize=1;fillColor=#a0522d;strokeColor=#6D1F00;fontColor=#000000;shadow=0;fontSize=19;labelPosition=center;verticalLabelPosition=middle;align=center;verticalAlign=middle;" vertex="1" parent="WIyWlLk6GJQsqaUBKTNV-1">
          <mxGeometry x="1340" y="40" width="160" height="90" as="geometry" />
        </mxCell>
        <mxCell id="O0BA-uQ4y1vlw3gM-e3o-30" style="edgeStyle=orthogonalEdgeStyle;rounded=0;orthogonalLoop=1;jettySize=auto;html=1;exitX=0.25;exitY=1;exitDx=0;exitDy=0;entryX=0.5;entryY=0;entryDx=0;entryDy=0;" edge="1" parent="WIyWlLk6GJQsqaUBKTNV-1" source="O0BA-uQ4y1vlw3gM-e3o-15" target="O0BA-uQ4y1vlw3gM-e3o-12">
          <mxGeometry relative="1" as="geometry" />
        </mxCell>
        <mxCell id="O0BA-uQ4y1vlw3gM-e3o-15" value="&lt;font style=&quot;font-size: 19px;&quot;&gt;Tropical SST $$x_T$$&lt;/font&gt;" style="shape=parallelogram;perimeter=parallelogramPerimeter;whiteSpace=wrap;html=1;fixedSize=1;fillColor=#a0522d;strokeColor=#6D1F00;fontColor=#000000;shadow=0;fontSize=19;labelPosition=center;verticalLabelPosition=middle;align=center;verticalAlign=middle;" vertex="1" parent="WIyWlLk6GJQsqaUBKTNV-1">
          <mxGeometry x="1510" y="40" width="160" height="90" as="geometry" />
        </mxCell>
        <mxCell id="O0BA-uQ4y1vlw3gM-e3o-17" value="&lt;font style=&quot;font-size: 19px;&quot;&gt;Asymmetric Laplace Likelihood&amp;nbsp;&lt;br style=&quot;font-size: 19px;&quot;&gt;$$ \Delta \log L = -\rho_\tau(y- \hat{q_{\tau}})$$&lt;/font&gt;" style="ellipse;whiteSpace=wrap;html=1;fillColor=#76608a;fontColor=#000000;strokeColor=#432D57;shadow=0;fontSize=19;labelPosition=center;verticalLabelPosition=middle;align=center;verticalAlign=middle;" vertex="1" parent="WIyWlLk6GJQsqaUBKTNV-1">
          <mxGeometry x="1190" y="510" width="370" height="150" as="geometry" />
        </mxCell>
        <mxCell id="O0BA-uQ4y1vlw3gM-e3o-32" style="edgeStyle=orthogonalEdgeStyle;rounded=0;orthogonalLoop=1;jettySize=auto;html=1;exitX=0.25;exitY=1;exitDx=0;exitDy=0;entryX=1;entryY=0;entryDx=0;entryDy=0;" edge="1" parent="WIyWlLk6GJQsqaUBKTNV-1" source="O0BA-uQ4y1vlw3gM-e3o-18" target="O0BA-uQ4y1vlw3gM-e3o-17">
          <mxGeometry relative="1" as="geometry" />
        </mxCell>
        <mxCell id="O0BA-uQ4y1vlw3gM-e3o-18" value="&lt;font style=&quot;font-size: 19px;&quot;&gt;Peak Wind Intensity $$y$$&lt;/font&gt;" style="shape=parallelogram;perimeter=parallelogramPerimeter;whiteSpace=wrap;html=1;fixedSize=1;fillColor=#a0522d;strokeColor=#6D1F00;fontColor=#000000;shadow=0;fontSize=19;labelPosition=center;verticalLabelPosition=middle;align=center;verticalAlign=middle;" vertex="1" parent="WIyWlLk6GJQsqaUBKTNV-1">
          <mxGeometry x="1540" y="310" width="220" height="95" as="geometry" />
        </mxCell>
      </root>
    </mxGraphModel>
  </diagram>
</mxfile>
